<svg width="16" xmlns="http://www.w3.org/2000/svg" viewBox="0 0 16 16" height="16" xmlns:xlink="http://www.w3.org/1999/xlink">
<defs>
<linearGradient id="linearGradient3809">
<stop offset="0" style="stop-color:#e5e5e5"/>
<stop offset="1" style="stop-color:#f9f9f9"/>
</linearGradient>
<linearGradient gradientTransform="translate(0 -16)" id="linearGradient3832" xlink:href="#linearGradient3809" x1="1" x2="15" gradientUnits="userSpaceOnUse"/>
</defs>
<rect width="14" x="1" y="-15" rx="1" height="14" style="fill:url(#linearGradient3832)" transform="rotate(90)"/>
<path style="fill:#aaa" d="M 2,0 C 0.892,0 0,0.892 0,2 l 0,12 c 0,1.108 0.892,2 2,2 l 12,0 c 1.108,0 2,-0.892 2,-2 L 16,2 C 16,0.892 15.108,0 14,0 L 2,0 z m 0,1 12,0 c 0.554,0 1,0.446 1,1 l 0,12 c 0,0.554 -0.446,1 -1,1 L 2,15 C 1.446,15 1,14.554 1,14 L 1,2 C 1,1.446 1.446,1 2,1 z"/>
<path style="fill:#427fed;line-height:normal;color:#000" d="m 11.653408,3.9183 c -0.365873,0.01 -0.727323,0.1623 -0.985551,0.4266 L 6.6385666,8.1816 5.2563479,6.6327 C 4.7644532,5.9767 3.6857884,5.9062 3.1156955,6.4927 2.5456026,7.0792 2.6246894,8.1781 3.2726474,8.6735 l 2.3831825,2.5599 c 0.9369248,0.9369 1.3590497,0.8116 2.3049741,-0.1343 0,0 3.250459,-3.9103 5.155609,-5.232 0.421127,-0.3992 0.596878,-0.5102 0.377676,-1.0522 -0.219202,-0.542 -1.265927,-0.916 -1.840681,-0.8966 z"/>
</svg>
