<svg width="16" xmlns="http://www.w3.org/2000/svg" viewBox="0 0 16 16" height="16" xmlns:xlink="http://www.w3.org/1999/xlink">
<defs>
<linearGradient id="linearGradient3809">
<stop offset="0" style="stop-color:#e5e5e5"/>
<stop offset="1" style="stop-color:#f9f9f9"/>
</linearGradient>
<linearGradient gradientTransform="translate(0 -16)" id="linearGradient3832" xlink:href="#linearGradient3809" x1="1" x2="15" gradientUnits="userSpaceOnUse"/>
</defs>
<rect width="14" x="1" y="-15" rx="1" height="14" style="fill:url(#linearGradient3832)" transform="rotate(90)"/>
<path style="fill:#aaa" d="M 2,0 C 0.892,0 0,0.892 0,2 l 0,12 c 0,1.108 0.892,2 2,2 l 12,0 c 1.108,0 2,-0.892 2,-2 L 16,2 C 16,0.892 15.108,0 14,0 L 2,0 z m 0,1 12,0 c 0.554,0 1,0.446 1,1 l 0,12 c 0,0.554 -0.446,1 -1,1 L 2,15 C 1.446,15 1,14.554 1,14 L 1,2 C 1,1.446 1.446,1 2,1 z"/>
<rect width="8" x="4" y="7" height="2" style="fill:#427fed"/>
</svg>
