<svg width="16" xmlns="http://www.w3.org/2000/svg" viewBox="0 0 16 16" height="16" xmlns:xlink="http://www.w3.org/1999/xlink">
<defs>
<linearGradient id="linearGradient3793">
<stop offset="0" style="stop-color:#e5e5e5"/>
<stop offset="1" style="stop-color:#f9f9f9"/>
</linearGradient>
<linearGradient gradientTransform="matrix(0 1 -1 0 16 0)" id="linearGradient3819" xlink:href="#linearGradient3793" x1="1" x2="15" gradientUnits="userSpaceOnUse"/>
</defs>
<path style="fill:url(#linearGradient3819)" d="M 7.9999998,15 C 4.1340073,15 1.0000003,11.865993 1.0000003,7.9999999 c 0,-3.8659932 3.1340069,-7 6.9999995,-7 3.8659932,0 7.0000002,3.1340068 7.0000002,7 C 15,11.865993 11.865993,15 7.9999997,15 z"/>
<path style="fill:#aaa" d="M 8,0 C 3.581722,0 0,3.581722 0,8 c 0,4.418278 3.581722,8 8,8 4.418278,0 8,-3.581722 8,-8 C 16,3.581722 12.418278,0 8,0 z m 0,1 c 3.865993,0 7,3.1340068 7,7 0,3.865993 -3.134007,7 -7,7 C 4.1340068,15 1,11.865993 1,8 1,4.1340068 4.1340068,1 8,1 z"/>
<rect width="8" x="4" y="7" height="2" style="fill:#427fed"/>
</svg>
