<svg width="16" xmlns="http://www.w3.org/2000/svg" viewBox="0 0 16 16" height="16" xmlns:xlink="http://www.w3.org/1999/xlink">
<defs>
<linearGradient gradientTransform="matrix(0 1 -1 0 16 0)" xlink:href="#linearGradient3793" id="linearGradient3799" x1="1" x2="15" gradientUnits="userSpaceOnUse"/>
<linearGradient id="linearGradient3793">
<stop offset="0" style="stop-color:#e5e5e5"/>
<stop offset="1" style="stop-color:#f9f9f9"/>
</linearGradient>
</defs>
<path style="fill:url(#linearGradient3799)" d="M 8,15 C 4.134007,15 1,11.865993 1,8 1,4.1340068 4.134007,1 8,1 c 3.865993,0 7,3.1340068 7,7 0,3.865993 -3.134007,7 -7,7 z"/>
<path style="fill:#aaa" d="M 8,0 C 3.581722,0 0,3.581722 0,8 c 0,4.418278 3.581722,8 8,8 4.418278,0 8,-3.581722 8,-8 C 16,3.581722 12.418278,0 8,0 z m 0,1 c 3.865993,0 7,3.1340068 7,7 0,3.865993 -3.134007,7 -7,7 C 4.1340068,15 1,11.865993 1,8 1,4.1340068 4.1340068,1 8,1 z"/>
<path style="fill:#427fed" d="M 11,8 C 11,9.6568542 9.6568542,11 8,11 6.3431458,11 5,9.6568542 5,8 5,6.3431458 6.3431458,5 8,5 c 1.6568542,0 3,1.3431458 3,3 z"/>
</svg>
